<?xml version="1.0" encoding="utf-8"?>
<!-- Generator: Adobe Illustrator 24.1.1, SVG Export Plug-In . SVG Version: 6.00 Build 0)  -->
<svg version="1.1" id="Layer_1" xmlns="http://www.w3.org/2000/svg" xmlns:xlink="http://www.w3.org/1999/xlink" x="0px" y="0px"
	 viewBox="0 0 512 512" style="enable-background:new 0 0 512 512;" xml:space="preserve">
<style type="text/css">
	.st0{fill:mediumturquoise;}
</style>
<g>
	<path class="st0" d="M384.9,353.2h63.6V200.6L376.8,129l-44.9,44.9l53,53V353.2z M448.6,385H356H226.9l-53-53l22.5-22.5l43.8,43.8
		h90.1l-88.7-88.9l22.6-22.6l88.7,88.7v-90.1l-43.6-43.6l22.3-22.3L221.4,63.9H112.7H0l63.4,63.4v0.2h0.3h131.1l46.5,46.5
		l-67.9,67.9L127,195.4v-36.1H63.4v62.4l110,110l-44.8,44.8l71.6,71.6h108.7H512L448.6,385z"/>
</g>
</svg>
